<svg width="42" height="42" viewBox="0 0 42 42" fill="none" xmlns="http://www.w3.org/2000/svg">
<g clip-path="url(#clip0_70_306)">
<rect x="1" y="1" width="40" height="40" rx="8" fill="white"/>
<g filter="url(#filter0_d_70_306)">
<rect x="5" y="5" width="32" height="47" rx="4" fill="white"/>
<rect x="4.5" y="4.5" width="33" height="48" rx="4.5" stroke="#9F9F9F"/>
</g>
<rect x="7.125" y="8.125" width="28.75" height="7.75" rx="1.875" fill="white" stroke="#CFCFCF" stroke-width="0.25"/>
<g clip-path="url(#clip1_70_306)">
<path d="M10.9637 14.9274C12.585 14.9274 13.9274 13.5821 13.9274 11.9637C13.9274 10.3424 12.5821 9 10.9608 9C9.34237 9 8 10.3424 8 11.9637C8 13.5821 9.34528 14.9274 10.9637 14.9274ZM10.9637 14.4334C9.59225 14.4334 8.49685 13.3351 8.49685 11.9637C8.49685 10.5923 9.58935 9.49395 10.9608 9.49395C12.3322 9.49395 13.4305 10.5923 13.4334 11.9637C13.4363 13.3351 12.3351 14.4334 10.9637 14.4334Z" fill="#027BFE"/>
<path d="M10.9637 13.8058C11.9719 13.8058 12.8058 12.969 12.8058 11.9637C12.8058 10.9555 11.969 10.1187 10.9637 10.1187C9.95548 10.1187 9.12158 10.9555 9.12158 11.9637C9.12158 12.969 9.95839 13.8058 10.9637 13.8058ZM10.9637 13.338C10.217 13.338 9.58938 12.7104 9.58938 11.9637C9.58938 11.2112 10.2141 10.5864 10.9637 10.5864C11.7105 10.5864 12.338 11.2141 12.338 11.9637C12.338 12.7133 11.7134 13.338 10.9637 13.338Z" fill="#027BFE"/>
<path d="M10.9666 12.716C11.3792 12.716 11.7192 12.379 11.7192 11.9606C11.7192 11.548 11.3792 11.2109 10.9666 11.2109C10.5511 11.2109 10.2112 11.548 10.2112 11.9606C10.2112 12.379 10.5511 12.716 10.9666 12.716Z" fill="#027BFE"/>
</g>
<rect x="7.125" y="38.125" width="28.75" height="7.75" rx="1.875" fill="white" stroke="#CFCFCF" stroke-width="0.25"/>
<g clip-path="url(#clip2_70_306)">
<path d="M10.9637 44.9274C12.585 44.9274 13.9274 43.5821 13.9274 41.9637C13.9274 40.3424 12.5821 39 10.9608 39C9.34237 39 8 40.3424 8 41.9637C8 43.5821 9.34528 44.9274 10.9637 44.9274ZM10.9637 44.4334C9.59225 44.4334 8.49685 43.3351 8.49685 41.9637C8.49685 40.5923 9.58935 39.4939 10.9608 39.4939C12.3322 39.4939 13.4305 40.5923 13.4334 41.9637C13.4363 43.3351 12.3351 44.4334 10.9637 44.4334Z" fill="#027BFE"/>
<path d="M10.9637 43.8058C11.9719 43.8058 12.8058 42.969 12.8058 41.9637C12.8058 40.9555 11.969 40.1187 10.9637 40.1187C9.95548 40.1187 9.12158 40.9555 9.12158 41.9637C9.12158 42.969 9.95839 43.8058 10.9637 43.8058ZM10.9637 43.338C10.217 43.338 9.58938 42.7104 9.58938 41.9637C9.58938 41.2112 10.2141 40.5864 10.9637 40.5864C11.7105 40.5864 12.338 41.2141 12.338 41.9637C12.338 42.7133 11.7134 43.338 10.9637 43.338Z" fill="#027BFE"/>
</g>
<rect x="7.125" y="28.125" width="28.75" height="7.75" rx="1.875" fill="white" stroke="#CFCFCF" stroke-width="0.25"/>
<g clip-path="url(#clip3_70_306)">
<path d="M10.9637 34.9274C12.585 34.9274 13.9274 33.5821 13.9274 31.9637C13.9274 30.3424 12.5821 29 10.9608 29C9.34237 29 8 30.3424 8 31.9637C8 33.5821 9.34528 34.9274 10.9637 34.9274ZM10.9637 34.4334C9.59225 34.4334 8.49685 33.3351 8.49685 31.9637C8.49685 30.5923 9.58935 29.4939 10.9608 29.4939C12.3322 29.4939 13.4305 30.5923 13.4334 31.9637C13.4363 33.3351 12.3351 34.4334 10.9637 34.4334Z" fill="#027BFE"/>
<path d="M10.9637 33.8058C11.9719 33.8058 12.8058 32.969 12.8058 31.9637C12.8058 30.9555 11.969 30.1187 10.9637 30.1187C9.95548 30.1187 9.12158 30.9555 9.12158 31.9637C9.12158 32.969 9.95839 33.8058 10.9637 33.8058ZM10.9637 33.338C10.217 33.338 9.58938 32.7104 9.58938 31.9637C9.58938 31.2112 10.2141 30.5864 10.9637 30.5864C11.7105 30.5864 12.338 31.2141 12.338 31.9637C12.338 32.7133 11.7134 33.338 10.9637 33.338Z" fill="#027BFE"/>
<path d="M10.9666 32.716C11.3792 32.716 11.7192 32.379 11.7192 31.9606C11.7192 31.548 11.3792 31.2109 10.9666 31.2109C10.5511 31.2109 10.2112 31.548 10.2112 31.9606C10.2112 32.379 10.5511 32.716 10.9666 32.716Z" fill="#027BFE"/>
</g>
<rect x="7.125" y="18.125" width="28.75" height="7.75" rx="1.875" fill="white" stroke="#CFCFCF" stroke-width="0.25"/>
<g clip-path="url(#clip4_70_306)">
<path d="M10.9637 24.9274C12.585 24.9274 13.9274 23.5821 13.9274 21.9637C13.9274 20.3424 12.5821 19 10.9608 19C9.34237 19 8 20.3424 8 21.9637C8 23.5821 9.34528 24.9274 10.9637 24.9274ZM10.9637 24.4334C9.59225 24.4334 8.49685 23.3351 8.49685 21.9637C8.49685 20.5923 9.58935 19.4939 10.9608 19.4939C12.3322 19.4939 13.4305 20.5923 13.4334 21.9637C13.4363 23.3351 12.3351 24.4334 10.9637 24.4334Z" fill="#027BFE"/>
<path d="M10.9637 23.8058C11.9719 23.8058 12.8058 22.969 12.8058 21.9637C12.8058 20.9555 11.969 20.1187 10.9637 20.1187C9.95548 20.1187 9.12158 20.9555 9.12158 21.9637C9.12158 22.969 9.95839 23.8058 10.9637 23.8058ZM10.9637 23.338C10.217 23.338 9.58938 22.7104 9.58938 21.9637C9.58938 21.2112 10.2141 20.5864 10.9637 20.5864C11.7105 20.5864 12.338 21.2141 12.338 21.9637C12.338 22.7133 11.7134 23.338 10.9637 23.338Z" fill="#027BFE"/>
<path d="M10.9666 22.716C11.3792 22.716 11.7192 22.379 11.7192 21.9606C11.7192 21.548 11.3792 21.2109 10.9666 21.2109C10.5511 21.2109 10.2112 21.548 10.2112 21.9606C10.2112 22.379 10.5511 22.716 10.9666 22.716Z" fill="#027BFE"/>
</g>
</g>
<rect x="0.5" y="0.5" width="41" height="41" rx="8.5" stroke="#C9C9C9"/>
<defs>
<filter id="filter0_d_70_306" x="0" y="4" width="42" height="57" filterUnits="userSpaceOnUse" color-interpolation-filters="sRGB">
<feFlood flood-opacity="0" result="BackgroundImageFix"/>
<feColorMatrix in="SourceAlpha" type="matrix" values="0 0 0 0 0 0 0 0 0 0 0 0 0 0 0 0 0 0 127 0" result="hardAlpha"/>
<feOffset dy="4"/>
<feGaussianBlur stdDeviation="2"/>
<feComposite in2="hardAlpha" operator="out"/>
<feColorMatrix type="matrix" values="0 0 0 0 0 0 0 0 0 0 0 0 0 0 0 0 0 0 0.25 0"/>
<feBlend mode="normal" in2="BackgroundImageFix" result="effect1_dropShadow_70_306"/>
<feBlend mode="normal" in="SourceGraphic" in2="effect1_dropShadow_70_306" result="shape"/>
</filter>
<clipPath id="clip0_70_306">
<rect x="1" y="1" width="40" height="40" rx="8" fill="white"/>
</clipPath>
<clipPath id="clip1_70_306">
<rect width="6" height="5.93028" fill="white" transform="translate(8 9)"/>
</clipPath>
<clipPath id="clip2_70_306">
<rect width="6" height="5.93028" fill="white" transform="translate(8 39)"/>
</clipPath>
<clipPath id="clip3_70_306">
<rect width="6" height="5.93028" fill="white" transform="translate(8 29)"/>
</clipPath>
<clipPath id="clip4_70_306">
<rect width="6" height="5.93028" fill="white" transform="translate(8 19)"/>
</clipPath>
</defs>
</svg>
