<svg width="42" height="42" viewBox="0 0 42 42" fill="none" xmlns="http://www.w3.org/2000/svg">
<rect x="0.5" y="0.5" width="41" height="41" rx="8.5" fill="white"/>
<rect x="0.5" y="0.5" width="41" height="41" rx="8.5" stroke="#C9C9C9"/>
<g clip-path="url(#clip0_70_299)">
<path d="M21.3639 30.0597H34.6503C35.2061 30.0597 35.6692 29.623 35.6692 29.0673C35.6692 28.4982 35.2061 28.0615 34.6503 28.0615H21.3639C20.8082 28.0615 20.3583 28.4982 20.3583 29.0673C20.3583 29.623 20.8082 30.0597 21.3639 30.0597Z" fill="#027BFE"/>
<path d="M11.7036 34.771C14.8134 34.771 17.4072 32.1772 17.4072 29.0674C17.4072 25.931 14.8134 23.3506 11.7036 23.3506C8.58051 23.3506 6 25.9443 6 29.0674C6 32.1772 8.59373 34.771 11.7036 34.771ZM11.7036 32.8389C9.65241 32.8389 7.93207 31.1053 7.93207 29.0674C7.93207 27.0162 9.66564 25.2827 11.7036 25.2827C13.7415 25.2827 15.4751 27.0162 15.4751 29.0674C15.4751 31.1053 13.7415 32.8389 11.7036 32.8389Z" fill="#027BFE"/>
<path d="M21.3639 14.7624H34.6503C35.2061 14.7624 35.6692 14.3257 35.6692 13.7567C35.6692 13.2009 35.2061 12.7642 34.6503 12.7642H21.3639C20.8082 12.7642 20.3583 13.2009 20.3583 13.7567C20.3583 14.3257 20.8082 14.7624 21.3639 14.7624Z" fill="#027BFE"/>
<path d="M11.7036 19.4467C14.8134 19.4467 17.4072 16.8662 17.4072 13.7564C17.4072 10.6333 14.8134 8.03955 11.7036 8.03955C8.58051 8.03955 6 10.6333 6 13.7564C6 16.8662 8.59373 19.4467 11.7036 19.4467ZM11.0287 16.8133C10.7508 16.8133 10.5655 16.6677 10.367 16.4427L8.88487 14.6562C8.75254 14.5107 8.71284 14.3519 8.71284 14.1401C8.71284 13.7564 9.00398 13.452 9.36127 13.452C9.6127 13.452 9.79797 13.5579 9.97 13.7828L11.0022 15.0929L13.3577 11.3082C13.5165 11.07 13.715 10.9377 13.9532 10.9377C14.3238 10.9377 14.6414 11.2288 14.6414 11.5596C14.6414 11.7449 14.5884 11.9037 14.4693 12.1022L11.7036 16.4427C11.558 16.6809 11.3198 16.8133 11.0287 16.8133Z" fill="#027BFE"/>
</g>
<defs>
<clipPath id="clip0_70_299">
<rect width="30" height="26.7711" fill="white" transform="translate(6 8)"/>
</clipPath>
</defs>
</svg>
