<svg width="42" height="42" viewBox="0 0 42 42" fill="none" xmlns="http://www.w3.org/2000/svg">
<rect x="0.5" y="0.5" width="41" height="41" rx="8.5" fill="white"/>
<rect x="0.5" y="0.5" width="41" height="41" rx="8.5" stroke="#C9C9C9"/>
<g clip-path="url(#clip0_70_298)">
<path d="M20.9414 35.8828C29.1152 35.8828 35.8828 29.1006 35.8828 20.9414C35.8828 12.7676 29.1006 6 20.9268 6C12.7676 6 6 12.7676 6 20.9414C6 29.1006 12.7822 35.8828 20.9414 35.8828ZM20.9414 33.3926C14.0273 33.3926 8.50488 27.8555 8.50488 20.9414C8.50488 14.0273 14.0127 8.49023 20.9268 8.49023C27.8408 8.49023 33.3779 14.0273 33.3926 20.9414C33.4072 27.8555 27.8555 33.3926 20.9414 33.3926Z" fill="#027BFE"/>
<path d="M20.9414 30.2285C26.0244 30.2285 30.2285 26.0098 30.2285 20.9414C30.2285 15.8584 26.0098 11.6396 20.9414 11.6396C15.8584 11.6396 11.6543 15.8584 11.6543 20.9414C11.6543 26.0098 15.873 30.2285 20.9414 30.2285ZM20.9414 27.8701C17.1768 27.8701 14.0127 24.7061 14.0127 20.9414C14.0127 17.1475 17.1621 13.998 20.9414 13.998C24.7061 13.998 27.8701 17.1621 27.8701 20.9414C27.8701 24.7207 24.7207 27.8701 20.9414 27.8701Z" fill="#027BFE"/>
<path d="M20.9561 24.7354C23.0361 24.7354 24.75 23.0361 24.75 20.9268C24.75 18.8467 23.0361 17.1475 20.9561 17.1475C18.8613 17.1475 17.1475 18.8467 17.1475 20.9268C17.1475 23.0361 18.8613 24.7354 20.9561 24.7354Z" fill="#027BFE"/>
</g>
<defs>
<clipPath id="clip0_70_298">
<rect width="30.249" height="29.8975" fill="white" transform="translate(6 6)"/>
</clipPath>
</defs>
</svg>
